<svg width="125.000000" height="24.000000" viewBox="0 0 125 24" fill="none" xmlns="http://www.w3.org/2000/svg" xmlns:xlink="http://www.w3.org/1999/xlink">
	<desc>
			Created with Pixso.
	</desc>
	<defs/>
	<rect id="vuesax/bold/eos-(eos)" rx="0.000000" width="23.000000" height="23.000000" transform="translate(0.500000 0.500000)" fill="#FFFFFF" fill-opacity="0"/>
	<path id="Vector" d="M9.27 20.31C9.45 20.79 8.92 21.23 8.48 20.97L5.33 19.18C4.77 18.85 4.41 18.06 4.53 17.42L5.47 12.75C5.59 12.2 6.35 12.15 6.53 12.67L9.27 20.31Z" fill="#F53838" fill-opacity="1.000000" fill-rule="nonzero"/>
	<path id="Vector" d="M18.66 19.18L15.5 20.98C15.06 21.23 14.54 20.8 14.71 20.32L17.45 12.61C17.65 12.09 18.41 12.14 18.52 12.69L19.46 17.42C19.58 18.06 19.23 18.85 18.66 19.18Z" fill="#F53838" fill-opacity="1.000000" fill-rule="nonzero"/>
	<path id="Vector" d="M17.08 7.32C17.32 7.62 17.39 8.02 17.26 8.38L12.52 21.63C12.35 22.12 11.66 22.12 11.49 21.63L6.75 8.39C6.62 8.03 6.69 7.63 6.92 7.33L10.75 2.63C11.44 1.8 12.58 1.8 13.28 2.63L17.08 7.32Z" fill="#F53838" fill-opacity="1.000000" fill-rule="nonzero"/>
	<g opacity="0.000000"/>
	<path id="LaslesVPN" d="M65.8 18.45Q65.89 18.5 66.01 18.5L66.86 18.5Q67.02 18.5 67.12 18.41Q67.14 18.4 67.16 18.38Q67.19 18.35 67.21 18.3Q67.27 18.21 67.27 18.08L67.27 6.13Q67.27 6 67.21 5.9Q67.19 5.87 67.16 5.83Q67.14 5.81 67.11 5.79Q67.02 5.72 66.86 5.72L66.01 5.72Q65.9 5.72 65.81 5.76Q65.75 5.79 65.71 5.83Q65.67 5.87 65.65 5.91Q65.59 6.01 65.59 6.13L65.59 18.08Q65.59 18.2 65.64 18.29Q65.67 18.34 65.71 18.38Q65.75 18.42 65.8 18.45ZM36.71 18.42Q36.81 18.5 36.98 18.5L44.32 18.5Q44.48 18.5 44.59 18.42Q44.61 18.4 44.63 18.38Q44.68 18.34 44.71 18.28Q44.75 18.19 44.75 18.08L44.75 17.36Q44.75 17.21 44.68 17.1Q44.66 17.07 44.63 17.05Q44.61 17.02 44.58 17Q44.48 16.93 44.32 16.93L38.34 16.93L38.34 6.31Q38.34 6.19 38.29 6.1Q38.27 6.06 38.23 6.01Q38.18 5.97 38.14 5.95Q38.05 5.9 37.93 5.9L36.98 5.9Q36.82 5.9 36.72 5.97Q36.69 5.99 36.67 6.01Q36.64 6.05 36.62 6.08Q36.56 6.18 36.56 6.31L36.56 18.08Q36.56 18.21 36.61 18.3Q36.64 18.35 36.67 18.38Q36.69 18.4 36.71 18.42ZM47.53 18.36Q48.23 18.68 49.07 18.68Q49.94 18.68 50.53 18.47Q51.12 18.26 51.52 17.95Q51.91 17.63 52.15 17.31L52.15 18.08Q52.15 18.21 52.2 18.3Q52.22 18.35 52.26 18.38Q52.27 18.4 52.3 18.42Q52.4 18.5 52.56 18.5L53.39 18.5Q53.51 18.5 53.61 18.44Q53.65 18.42 53.69 18.38Q53.73 18.34 53.76 18.28Q53.8 18.19 53.8 18.08L53.8 12.25Q53.8 12.02 53.78 11.79Q53.73 11.41 53.61 11.04Q53.53 10.78 53.4 10.54Q53.24 10.24 53 9.98Q52.58 9.51 51.84 9.24Q51.11 8.95 50.02 8.95Q49.05 8.95 48.38 9.22Q47.7 9.48 47.27 9.86Q46.84 10.23 46.63 10.63Q46.43 11.02 46.43 11.3Q46.43 11.39 46.46 11.47Q46.48 11.52 46.52 11.57Q46.54 11.6 46.56 11.61Q46.66 11.69 46.82 11.69L47.63 11.69Q47.75 11.69 47.84 11.64Q47.95 11.57 48.01 11.42Q48.05 11.31 48.11 11.21Q48.31 10.85 48.71 10.59Q49.22 10.27 50.01 10.27Q51.12 10.27 51.62 10.76Q51.69 10.83 51.76 10.92Q52.11 11.38 52.11 12.11L52.11 12.63L49.43 13.01Q47.81 13.24 46.8 13.98Q46.29 14.35 46.04 14.86Q45.8 15.35 45.8 15.96Q45.8 16.4 45.94 16.78Q46.05 17.08 46.25 17.34Q46.32 17.44 46.39 17.53Q46.81 18.01 47.43 18.31Q47.48 18.34 47.53 18.36ZM57.91 18.42Q58.63 18.68 59.64 18.68Q60.9 18.68 61.76 18.31Q62.62 17.94 63.05 17.31Q63.29 16.96 63.4 16.58Q63.49 16.26 63.49 15.92Q63.49 15.25 63.21 14.73Q63.2 14.72 63.2 14.72Q62.91 14.19 62.23 13.8Q61.55 13.4 60.36 13.17Q59.26 12.91 58.7 12.7Q58.14 12.48 57.94 12.22Q57.85 12.09 57.8 11.95Q57.75 11.79 57.75 11.6Q57.75 11.33 57.85 11.1Q57.96 10.85 58.19 10.65Q58.65 10.27 59.55 10.27Q60.18 10.27 60.56 10.42Q60.95 10.58 61.19 10.81Q61.44 11.04 61.62 11.28Q61.69 11.35 61.77 11.4Q61.85 11.46 61.98 11.46L62.73 11.46Q62.81 11.46 62.87 11.43Q62.95 11.4 63.02 11.34Q63.08 11.29 63.1 11.22Q63.14 11.14 63.13 11.04Q63.11 10.81 62.9 10.47Q62.68 10.12 62.25 9.78Q61.82 9.42 61.15 9.19Q60.48 8.95 59.55 8.95Q58.4 8.95 57.63 9.35Q56.87 9.75 56.47 10.37Q56.15 10.86 56.09 11.39Q56.07 11.52 56.07 11.66Q56.07 12.27 56.32 12.77Q56.33 12.79 56.34 12.82Q56.61 13.33 57.24 13.7Q57.87 14.07 58.95 14.32Q60.03 14.55 60.65 14.77Q61.27 14.98 61.52 15.26Q61.55 15.29 61.57 15.32Q61.76 15.58 61.76 15.98Q61.76 16.31 61.62 16.56Q61.47 16.83 61.16 17.01Q60.57 17.36 59.65 17.36Q59.02 17.36 58.6 17.2Q58.18 17.04 57.89 16.79Q57.61 16.54 57.37 16.28Q57.26 16.16 57.2 16.13Q57.13 16.1 57.05 16.1L56.23 16.1Q56.09 16.1 55.94 16.21Q55.89 16.25 55.86 16.3Q55.81 16.39 55.82 16.51Q55.84 16.73 56.06 17.09Q56.29 17.45 56.74 17.81Q57.19 18.17 57.91 18.42ZM71.29 18.01Q72.27 18.68 73.69 18.68Q74.61 18.68 75.34 18.43Q76.07 18.19 76.56 17.81Q77.06 17.43 77.33 17.04Q77.6 16.66 77.62 16.39Q77.63 16.27 77.58 16.18Q77.56 16.14 77.52 16.11Q77.48 16.08 77.43 16.05Q77.34 16.01 77.24 16.01L76.36 16.01Q76.16 16.01 76.07 16.06Q75.98 16.1 75.82 16.32Q75.73 16.46 75.46 16.71Q75.19 16.95 74.75 17.15Q74.32 17.34 73.68 17.34Q73.14 17.34 72.7 17.14Q72.54 17.06 72.39 16.95Q72.18 16.8 72.02 16.62Q71.73 16.32 71.55 15.92Q71.51 15.83 71.48 15.74Q71.26 15.18 71.23 14.54L71.23 14.37L77.46 14.37Q77.59 14.37 77.69 14.31Q77.72 14.29 77.75 14.27Q77.77 14.25 77.79 14.22Q77.87 14.12 77.87 13.96L77.87 13.65Q77.87 12.23 77.38 11.17Q77.04 10.43 76.49 9.92Q76.25 9.7 75.97 9.53Q75.04 8.95 73.68 8.95Q72.45 8.95 71.54 9.48Q71.23 9.66 70.97 9.89Q70.46 10.33 70.11 10.96Q69.59 11.93 69.52 13.2Q69.5 13.44 69.5 13.81Q69.5 14.18 69.52 14.41Q69.62 16.24 70.56 17.35Q70.64 17.44 70.72 17.53Q70.99 17.81 71.29 18.01ZM81.54 18.42Q82.26 18.68 83.27 18.68Q84.53 18.68 85.39 18.31Q86.26 17.94 86.69 17.31Q86.93 16.96 87.03 16.58Q87.12 16.26 87.12 15.92Q87.12 15.25 86.84 14.73Q86.84 14.72 86.83 14.72Q86.55 14.19 85.86 13.8Q85.18 13.4 83.99 13.17Q82.89 12.91 82.33 12.7Q81.78 12.48 81.58 12.22Q81.49 12.09 81.44 11.95Q81.38 11.79 81.38 11.6Q81.38 11.33 81.48 11.1Q81.59 10.85 81.83 10.65Q82.28 10.27 83.18 10.27Q83.81 10.27 84.2 10.42Q84.58 10.58 84.83 10.81Q85.07 11.04 85.25 11.28Q85.32 11.35 85.4 11.4Q85.48 11.46 85.61 11.46L86.37 11.46Q86.44 11.46 86.5 11.43Q86.58 11.4 86.65 11.34Q86.71 11.29 86.74 11.22Q86.77 11.14 86.76 11.04Q86.75 10.81 86.53 10.47Q86.31 10.12 85.88 9.78Q85.45 9.42 84.78 9.19Q84.12 8.95 83.18 8.95Q82.03 8.95 81.27 9.35Q80.5 9.75 80.1 10.37Q79.79 10.86 79.72 11.39Q79.71 11.52 79.71 11.66Q79.71 12.27 79.95 12.77Q79.96 12.79 79.97 12.82Q80.25 13.33 80.87 13.7Q81.51 14.07 82.59 14.32Q83.66 14.55 84.28 14.77Q84.91 14.98 85.15 15.26Q85.18 15.29 85.2 15.32Q85.4 15.58 85.4 15.98Q85.4 16.31 85.26 16.56Q85.11 16.83 84.8 17.01Q84.21 17.36 83.29 17.36Q82.66 17.36 82.24 17.2Q81.81 17.04 81.52 16.79Q81.24 16.54 81 16.28Q80.9 16.16 80.83 16.13Q80.77 16.1 80.68 16.1L79.87 16.1Q79.72 16.1 79.58 16.21Q79.53 16.25 79.5 16.3Q79.44 16.39 79.45 16.51Q79.47 16.73 79.7 17.09Q79.93 17.45 80.37 17.81Q80.82 18.17 81.54 18.42ZM76.16 13.13L71.23 13.13L71.23 13.08Q71.23 12.27 71.51 11.64Q71.71 11.22 72.02 10.91Q72.17 10.76 72.35 10.64Q72.39 10.61 72.43 10.59Q72.96 10.27 73.68 10.27Q74.38 10.27 74.91 10.58Q74.96 10.61 75.01 10.64Q75.21 10.77 75.37 10.94Q75.67 11.23 75.86 11.64Q76.16 12.27 76.16 13.08L76.16 13.13ZM50.56 17.12Q50.05 17.33 49.45 17.33Q49.18 17.33 48.92 17.28Q48.71 17.24 48.5 17.16Q48.13 17.03 47.86 16.78Q47.8 16.73 47.75 16.67Q47.66 16.57 47.6 16.46Q47.45 16.19 47.45 15.83Q47.45 15.63 47.51 15.44Q47.65 15.05 48.1 14.76Q48.75 14.34 50.02 14.16L52.11 13.85L52.11 14.36Q52.11 15.36 51.76 16.03Q51.51 16.5 51.13 16.8Q50.97 16.92 50.8 17.01Q50.68 17.07 50.56 17.12Z" fill="#151515" fill-opacity="1.000000" fill-rule="evenodd"/>
	<path id="LaslesVPN" d="M92.43 18.37Q92.59 18.5 92.84 18.5L95.2 18.5Q95.51 18.5 95.68 18.34L95.68 18.34Q95.79 18.25 95.85 18.13Q95.89 18.06 95.91 17.97L99.69 6.44Q99.7 6.34 99.7 6.27Q99.7 6.22 99.69 6.18Q99.67 6.09 99.59 6.01Q99.55 5.96 99.48 5.93Q99.41 5.9 99.33 5.9L97.44 5.9Q97.21 5.9 97.07 6.01Q97.05 6.03 97.02 6.05Q96.88 6.2 96.83 6.33L94.04 15.13L91.23 6.33Q91.19 6.2 91.04 6.05Q91.01 6.02 90.98 6Q90.84 5.9 90.62 5.9L88.73 5.9Q88.64 5.9 88.58 5.93Q88.51 5.96 88.45 6.01Q88.38 6.09 88.36 6.18Q88.34 6.22 88.34 6.27Q88.34 6.34 88.37 6.44L92.15 17.97Q92.18 18.07 92.23 18.15Q92.29 18.25 92.39 18.34Q92.41 18.36 92.43 18.37ZM101.7 18.43Q101.81 18.5 101.96 18.5L104.01 18.5Q104.16 18.5 104.26 18.43Q104.3 18.4 104.33 18.37Q104.37 18.33 104.4 18.28Q104.46 18.18 104.46 18.05L104.46 13.98L106.87 13.98Q108.33 13.98 109.4 13.55Q110.17 13.23 110.7 12.68Q110.9 12.47 111.07 12.22Q111.67 11.33 111.67 9.96Q111.67 8.61 111.07 7.71Q110.88 7.42 110.65 7.18Q110.13 6.66 109.4 6.35Q108.33 5.9 106.87 5.9L101.96 5.9Q101.82 5.9 101.71 5.96Q101.67 5.98 101.63 6.02Q101.59 6.06 101.57 6.1Q101.51 6.2 101.51 6.34L101.51 18.05Q101.51 18.18 101.56 18.29Q101.59 18.33 101.63 18.37Q101.66 18.41 101.7 18.43ZM113.71 18.43Q113.82 18.5 113.96 18.5L115.78 18.5Q115.92 18.5 116.02 18.44Q116.06 18.41 116.1 18.37Q116.15 18.33 116.18 18.28Q116.23 18.18 116.23 18.05L116.23 10.9L121.02 18.17Q121.07 18.23 121.19 18.36Q121.31 18.5 121.58 18.5L123.23 18.5Q123.36 18.5 123.46 18.44Q123.51 18.41 123.55 18.36Q123.62 18.29 123.66 18.2Q123.68 18.13 123.68 18.05L123.68 6.34Q123.68 6.21 123.62 6.11Q123.59 6.06 123.55 6.02Q123.51 5.98 123.47 5.95Q123.37 5.9 123.23 5.9L121.39 5.9Q121.3 5.9 121.23 5.93Q121.15 5.96 121.09 6.02Q121.05 6.06 121.03 6.1Q120.96 6.2 120.96 6.34L120.96 13.73L116.16 6.22Q116.12 6.15 115.99 6.02Q115.87 5.9 115.6 5.9L113.96 5.9Q113.82 5.9 113.72 5.96Q113.67 5.98 113.63 6.02Q113.6 6.06 113.57 6.1Q113.51 6.2 113.51 6.34L113.51 18.05Q113.51 18.18 113.57 18.29Q113.6 18.33 113.63 18.37Q113.67 18.41 113.71 18.43ZM106.78 11.75L104.41 11.75L104.41 8.15L106.78 8.15Q107.81 8.15 108.26 8.65Q108.37 8.77 108.45 8.89Q108.73 9.33 108.73 9.94Q108.73 10.73 108.34 11.17Q108.28 11.24 108.21 11.3Q107.7 11.75 106.78 11.75Z" fill="#101010" fill-opacity="1.000000" fill-rule="evenodd"/>
</svg>
