<svg width="14.996033" height="14.892822" viewBox="0 0 14.996 14.8928" fill="none" xmlns="http://www.w3.org/2000/svg" xmlns:xlink="http://www.w3.org/1999/xlink">
	<desc>
			Created with Pixso.
	</desc>
	<defs/>
	<path id="Vector" d="M8.79 1.07L10.11 3.71C10.29 4.07 10.77 4.43 11.17 4.49L13.56 4.89C15.09 5.15 15.45 6.25 14.35 7.35L12.49 9.22C12.18 9.53 12 10.14 12.1 10.58L12.63 12.89C13.05 14.71 12.08 15.42 10.47 14.47L8.23 13.14C7.82 12.9 7.16 12.9 6.75 13.14L4.5 14.46C2.89 15.41 1.92 14.7 2.34 12.88L2.87 10.57C2.97 10.14 2.79 9.53 2.48 9.21L0.63 7.36C-0.47 6.26 -0.11 5.15 1.42 4.9L3.81 4.5C4.21 4.43 4.69 4.08 4.87 3.72L6.19 1.08C6.9 -0.36 8.08 -0.36 8.79 1.07Z" fill="#F3CC40" fill-opacity="1.000000" fill-rule="nonzero"/>
</svg>
